<svg id="Calque_1" data-name="Calque 1" xmlns="http://www.w3.org/2000/svg" viewBox="0 0 560 288"><title>Plan de travail 1</title><path d="M70.26,45.15l-1.69,3H27.11V94.87H17.17V25.27H81.8l-1.69,3h-53v16.9Z"/><path d="M160,62.45c0,24.06-18.1,33.41-35.9,33.81-19.29.4-38.38-10.14-38.38-33.81V25.27h10V62.45c0,21.88,13.52,30.73,28.43,31.12,15.81.4,33-8.84,33-31.12L157,25.27h3Z"/><path d="M228.05,48.14h-6.86l1.69-3H238V88.4a49.65,49.65,0,0,1-26.85,7.76c-19.88,0-42.26-12.13-42.26-36C168.89,36,191.27,24,211.15,24A49.64,49.64,0,0,1,238,31.73l-2.89,5.07c-5.47-6.46-13.52-10.54-24-10.44-20.78.2-31.82,15.61-31.92,33.21,0,18,11.44,34,32,33.9a32.92,32.92,0,0,0,16.8-4.27Z"/><path d="M307,45.15l-1.69,3H267.82V91.88h54.69l-1.69,3H257.88V25.27h60.65l-1.69,3h-49v16.9Z"/><path d="M362.88,48.14H341.7V94.87h-9.95V25.27h48.72c8.75,0,15.91,3.18,15.91,11.93s-7.16,10.94-15.91,10.94h-6.26l27,46.73H389.72Zm-21.18-3h36.79c6.46,0,7-1.29,7-7.95,0-6.46-.5-9-7-9H341.7Z"/><path d="M465.68,68H430.39L414.78,94.87H411.3l40.16-69.6h1l40.27,69.6H481.19ZM446.89,39.19,432,65h32L449.08,39.19Z"/><path d="M543.63,25.27h3.58l-24.16,42V94.87h-9.94V68.52l-25-43.25h11.54l22,38.08Z"/><text/></svg>