<svg id="Calque_1" data-name="Calque 1" xmlns="http://www.w3.org/2000/svg" viewBox="0 0 560 288"><title>Plan de travail 1</title><path d="M86.94,84.54H88V22.13h3.15V95.8H82.74L23.49,25.29H20.33V95.8H17.17V22.13H34.64Z"/><path d="M149.56,20.77c21,0,44.83,12.73,44.83,38.3,0,25.26-23.79,38.1-44.83,38.1s-44.73-12.84-44.73-38.1C104.83,33.5,128.51,20.77,149.56,20.77Zm.1,73.56c22-.11,33.68-16.31,33.89-34.94-.11-19-12.21-36.31-34-36.1-22,.21-33.68,16.52-33.79,35.15C115.77,77.49,127.88,94.43,149.66,94.33Z"/><path d="M267.94,22.13,233.74,95.7,199.33,22H210.8L236.69,77.7h1.79l25.78-55.57Z"/><path d="M280.57,95.8V22.13h10.52V95.8Z"/><path d="M357.7,43.18,388.22,95.8H376L347.49,46.34H322.66V95.8H312.13V22.13h10.53V43.18h30.73l12.31-21h4.11Z"/><path d="M431.89,20.77c21.05,0,44.83,12.73,44.83,38.3,0,25.26-23.78,38.1-44.83,38.1s-44.72-12.84-44.72-38.1C387.17,33.5,410.84,20.77,431.89,20.77ZM432,94.33c22-.11,33.67-16.31,33.88-34.94-.1-19-12.2-36.31-34-36.1-22,.21-33.68,16.52-33.78,35.15C398.11,77.49,410.21,94.43,432,94.33Z"/><path d="M550.28,22.13,516.08,95.7,481.66,22h11.47L519,77.7h1.79L546.6,22.13Z"/><text/></svg>